<?xml version="1.0" encoding="utf-8"?>
<!-- Svg Vector Icons : http://www.onlinewebfonts.com/icon -->
<!DOCTYPE svg PUBLIC "-//W3C//DTD SVG 1.1//EN" "http://www.w3.org/Graphics/SVG/1.1/DTD/svg11.dtd">
<svg version="1.1" xmlns="http://www.w3.org/2000/svg" xmlns:xlink="http://www.w3.org/1999/xlink" x="0px" y="0px" viewBox="0 0 256 256" enable-background="new 0 0 256 256" xml:space="preserve">
<metadata> Svg Vector Icons : http://www.onlinewebfonts.com/icon </metadata>
<g><g><g><path fill="#000000" d="M124,10.6c-7.3,1.3-13.7,4.1-20.9,9C94,25.8,89.5,30.5,86.3,37c-3.1,6.3-3.7,9.8-4,20.4c-0.1,7.4-0.4,9.6-1,10.9c-1.1,2.3-1,7.7,0.3,12.3c1.6,5.8,3.5,9.4,6.7,12.5c2.3,2.2,3.1,3.5,3.9,5.8c2.9,7.9,7.6,15.5,13.2,21.1c14.3,14.3,30.7,14.3,45,0c2-2,4.9-5.4,6.2-7.4c2.5-3.7,6.3-11.3,7.4-14.8c0.4-1.1,1.7-2.8,3.5-4.6c3.2-3.2,5.1-6.7,6.8-12.5c1.3-4.6,1.4-10,0.3-12.3c-0.6-1.3-0.8-3.5-1-10.6c-0.2-10.4-1-14.4-4-20.6c-3.5-7.3-8.5-11.9-14.6-13.7c-3.3-1-3.3-1-4.4-3.4C147.6,12.3,136.3,8.4,124,10.6z M120.6,38.4c4.2,1,13.1,0.7,17.4-0.5c4-1.2,9.4-0.8,12.5,0.8c4.3,2.2,8.5,7.8,10.3,13.9c2.9,9.4,1.8,28.3-2.5,41.2c-6.3,19.2-20.7,32.1-33.2,29.9c-13.2-2.4-25.3-17.5-29.4-37.1c-2.2-10-2.8-24.8-1.2-31.4c2-8.7,7.3-15.6,13.7-17.6C109.9,37.1,116.7,37.5,120.6,38.4z"/><path fill="#000000" d="M104,68c-2.3,0.6-3.7,1.6-3.7,2.7c0,0.2,0.4,0.8,1,1.3c0.7,0.7,1.3,0.9,2.2,0.6c2.6-0.6,10.5-0.8,13-0.2c2.3,0.5,2.6,0.5,3.5-0.4c1.4-1.4,0.8-3.1-1.4-3.8C115.6,67.4,106.8,67.2,104,68z"/><path fill="#000000" d="M139,68c-3.6,0.8-4.6,2.4-2.6,4.2c0.8,0.7,1.2,0.7,3,0.3c2.6-0.6,9.7-0.6,12,0c2,0.6,3.4,0.2,4-1c0.7-1.3-0.2-2.6-2.2-3.2C150.5,67.4,142.1,67.3,139,68z"/><path fill="#000000" d="M109.2,74.9c-4.6,2-3.5,8.2,1.5,8.9c6.2,0.8,9.2-6.2,3.7-8.8C112.5,74.1,111.1,74.1,109.2,74.9z"/><path fill="#000000" d="M141.5,75.1c-2.6,1.3-3.6,4.4-2.1,6.5c2.9,4.2,10.4,2.4,10.4-2.5c0-1.9-1.2-3.4-3.1-4.2C144.7,74.1,143.4,74.1,141.5,75.1z"/><path fill="#000000" d="M122.1,94.2c0.3,1.1,4.5,3.7,5.9,3.7c1.4,0,5.6-2.6,5.9-3.7c0.2-0.5-0.1-0.6-1.6-0.2c-1,0.2-3,0.4-4.4,0.4s-3.3-0.2-4.4-0.4C122.2,93.7,121.9,93.7,122.1,94.2z"/><path fill="#000000" d="M118.3,106.2c-0.6,0.4-0.4,0.7,0.9,2c3.6,3.7,9.4,4.7,13.9,2.5c3.3-1.6,5.6-3.9,4.6-4.5C136.8,105.6,119.2,105.6,118.3,106.2z"/><path fill="#000000" d="M91,133.8c-2.2,1.4-5.6,3.5-7.7,4.7l-3.8,2.1v27.7V196l1.3,0.5c3.8,1.4,6.6,3.8,8.4,7.5c1.2,2.4,1.4,3.4,1.4,6.2c0,4.3-1,7.1-3.6,10c-5.6,6.2-14.8,6.8-20.8,1.3c-2.6-2.4-3.7-4.2-4.6-7.7c-1.3-5.2,0.4-10.5,4.7-14.3c1.2-1.1,3.1-2.3,4.2-2.7l2-0.8v-26v-26.1L61,149c-16.8,7.6-22.7,11.2-25.3,15c-5.6,8.2-9.2,29.4-9.9,59.1c-0.3,12.3-0.3,12.5,0.8,15c1.4,3.2,4.8,6.3,8,7.3c2,0.6,13.6,0.7,93.4,0.7c79.8,0,91.3-0.1,93.4-0.7c3.2-0.9,6.6-4.1,8-7.3c1.1-2.4,1.1-2.6,0.8-15c-0.6-28.3-3.9-49.1-9.1-57.8c-2.9-4.9-8.7-8.5-27.3-16.9c-4.2-1.9-8.3-3.7-9.1-4.1l-1.5-0.6v5.3v5.2l2.8,1c5.5,2,10.7,8.3,13.2,15.8c1.5,4.5,8.6,38.3,8.6,40.9c0,4.2-3.6,8.3-8.3,9.8c-1.2,0.3-2.8,1.3-3.6,2.1c-2.9,2.9-8.2,1.4-9.4-2.5c-1.4-5,4-9,8.6-6.2c1.4,0.9,1.5,0.9,3.4,0c3.4-1.6,3.4-1.1-0.8-21.4c-4-19-5.4-23.5-8.1-27.3c-4.3-5.8-10.6-7.3-15.7-3.7c-2.3,1.6-5.4,6-6.7,9.6c-0.6,1.5-2.8,11-5,21.2c-3,14.1-3.8,18.7-3.5,19.5c0.3,0.6,1.3,1.5,2.5,2c2,1,2,1,3.5,0.1c3-1.9,6.7-0.8,8.3,2.3c1.9,3.7-0.8,7.9-5.1,7.9c-1.9,0-4.2-1-4.5-2c-0.1-0.4-1.3-1-2.7-1.4c-5-1.6-8.1-5-8.6-9.3c-0.2-1.9,6.9-36.7,8.5-41.2c2.4-7.1,6.7-12.6,11.9-15.2c1.8-0.9,3.6-1.6,3.9-1.6c0.5,0,0.6-1.4,0.6-6.9v-6.9l-3.6-1.9c-2-1.1-5.5-3.2-7.8-4.7c-4.4-2.8-5.3-3.1-6.1-2.2c-0.2,0.3-5.2,10.7-11,23.1c-9.9,21.1-11.3,24-11.3,22.9c0-0.3-0.6-3.9-1.3-8.1l-1.3-7.7l1.3-1.6c0.7-0.9,1.9-2.7,2.5-4c2.4-5,0.7-11.3-3.3-13.2c-1.4-0.6-2.7-0.8-7.3-0.6c-5,0.1-5.8,0.3-7.2,1.2c-4.6,3.3-4.5,11.2,0.2,16.7l1.3,1.6l-1.3,7.7c-0.7,4.2-1.3,7.9-1.3,8.1c0,1.1-1.4-1.8-11.3-22.9c-5.8-12.4-10.7-22.7-11-23.1C96.1,130.8,95,131.2,91,133.8z"/></g></g></g>
</svg>