<?xml version="1.0" encoding="utf-8"?>
<!-- Svg Vector Icons : http://www.onlinewebfonts.com/icon -->
<!DOCTYPE svg PUBLIC "-//W3C//DTD SVG 1.1//EN" "http://www.w3.org/Graphics/SVG/1.1/DTD/svg11.dtd">
<svg version="1.1" xmlns="http://www.w3.org/2000/svg" xmlns:xlink="http://www.w3.org/1999/xlink" x="0px" y="0px" viewBox="0 0 256 256" enable-background="new 0 0 256 256" xml:space="preserve">
<metadata> Svg Vector Icons : http://www.onlinewebfonts.com/icon </metadata>
<g><g><g><path fill="#000000" d="M61.2,18.3c-3.8,0.8-9,3.7-11.5,6.4c-4.4,4.9-5.7,9.4-5.7,19.4c0,6.1,0,6.6-0.9,6.9c-1.3,0.4-1.6,1.5-1.6,5.4c0,5.2,1.4,9,5,13.8c1,1.3,2.1,3.3,2.5,4.4c0.8,2.6,2.6,6,4.2,8.1c1.2,1.6,1.2,1.8,0.4,2.4c-1.4,1.1-10.6,5.6-17.6,8.7c-12.2,5.4-14.4,6.7-17.2,10.5c-2.2,2.9-4.8,8.3-6.1,12.3c-1,3.2-2.5,10.6-2.5,12.7c0,2,2.6,3.8,6.7,5c4.1,1.1,16.5,3.1,24.5,3.9c5.4,0.6,21.1,1.5,21.3,1.3c0.1-0.1-0.4-1.9-1-4c-3.6-11.3-3.8-25.2-0.5-36.5c4.5-15.5,16.7-30.6,31.1-38.7l3.5-2l-0.1-3.1c-0.1-2.4-0.4-3.3-1.2-3.9c-0.9-0.7-1-1.5-1.3-8.2c-0.2-5.6-0.5-8.2-1.3-10.6c-2-6.2-6.8-11.2-13.2-13.3C75.3,18.1,65,17.5,61.2,18.3z"/><path fill="#000000" d="M170.4,18.8c-4.5,1.3-8.3,3.8-11,7.4c-3.4,4.4-4.4,7.9-4.7,17c-0.2,6.6-0.4,7.4-1.3,8.2c-0.8,0.6-1,1.5-1.2,4.2l-0.1,3.4l3,1.6c7.2,3.9,17,12.9,21.8,20.2c5,7.5,8.6,16,10.2,24.4c0.4,2.1,0.7,6.6,0.7,11.3c0,8.4-0.7,13.3-2.9,19.9l-1.1,3.5l5-0.3c23.7-1.4,43-4.3,47-7.1c2-1.4,2.2-2.7,1.2-8.2c-1.4-7.5-3.5-13.3-6.9-18.4c-3.3-5-5.2-6.2-18.2-12c-7-3.1-16.2-7.7-17.6-8.7c-0.8-0.6-0.7-0.8,0.8-3c1-1.3,2.3-3.9,3-5.9c0.7-1.9,2.2-4.6,3.2-6c3.1-4.2,4.5-7.8,4.8-12.4c0.2-4.8,0-6.4-1.4-6.8c-0.9-0.3-1-0.7-1-6.9c0-10.4-1.5-15.1-6.3-20c-4.7-4.6-9.7-6.3-18.5-6.3C175.3,17.9,172.5,18.2,170.4,18.8z"/><path fill="#000000" d="M114.3,60.4c-11.8,1.9-22.4,7.3-31.3,16.2c-24.7,24.6-21.7,65.2,6.4,86.1c10,7.4,21.2,11.1,33.9,11.1c10,0,18.8-2.1,26.9-6.5l3.6-2l35.5,35.4c27.2,27.2,36,35.7,37.7,36.4c2.6,1.2,5.9,1.3,7.8,0.3c2.4-1.3,10.8-10.2,11.2-12c0.4-1.8,0-4.1-1.1-6.2c-0.4-0.8-16.8-17.6-36.4-37.2l-35.7-35.8l2-4.3c4.8-10.3,6.5-19.7,5.6-29.9c-1.3-13.8-6.8-25.7-16.5-35.4C150.7,63.5,132.5,57.5,114.3,60.4z M135.2,71.4c15.9,4.1,28.5,16.7,32.9,32.8c0.9,3.2,1.1,5.3,1.1,11.3c0,8-0.8,12.1-3.4,18.2c-3,6.8-9.2,14.4-15.3,18.8c-3.9,2.8-10.3,5.9-15.2,7.1c-5.8,1.6-16.5,1.6-22.4,0C96,155,83.2,141.8,79.5,124.8c-1-4.5-1-14.1,0-18.8c3.4-15.4,15.1-28.6,29.9-33.6C117.2,69.8,127.3,69.4,135.2,71.4z"/><path fill="#000000" d="M117.5,78c-9.7,2-14.6,5-18.1,11.5c-2.2,4-2.9,7.6-3.1,16.3c-0.3,7.9-0.3,8.1-1.6,9.2c-1.2,1-1.2,1.3-1.2,5.4c0,6.1,2.2,11.7,6,16.1c0.8,0.9,2,3.2,2.7,5.2c2.5,6.7,3.4,7.6,10.1,9.8c8.9,2.9,17.8,2.6,26.1-0.8c3.7-1.5,5.1-3.2,7.1-8.9c0.7-2,2-4.4,2.8-5.3c3.9-4.5,6-10,6-16.1c0.1-4.1,0-4.4-1.2-5.4c-1.3-1.1-1.3-1.3-1.6-9.2c-0.3-8.8-1-12.3-3.2-16.3c-3-5.6-7.6-9-14.7-10.9C129.6,77.5,121.7,77.2,117.5,78z"/><path fill="#000000" d="M76.5,167.4c-5.5,2.7-9.1,6.5-12.4,13.3c-2.8,5.8-4.5,11.5-5.5,17.9c-0.5,4-0.5,4.6,0.2,5.8c1.7,2.6,6.9,4.2,21.5,6.4c30.2,4.6,61.5,4.3,91.2-0.7c4.6-0.8,9.5-1.8,11-2.2l2.7-0.8L169,190.9l-16.2-16.2l-4.5,1.8c-21.9,8.8-45.8,5.8-63.7-7.9l-4-3.1L76.5,167.4z"/></g></g></g>
</svg>